<svg width="891" height="404" viewBox="0 0 891 404" fill="none" xmlns="http://www.w3.org/2000/svg">
<rect width="891" height="404" rx="15" fill="#0D1117"/>
<path d="M282.76 228.8C276.307 228.8 271.107 226.693 267.16 222.48L270.04 217.44L270.36 216.72L270.92 217.04C271.027 217.413 271.16 217.84 271.32 218.32C271.48 218.747 271.853 219.28 272.44 219.92C273.827 221.093 275.427 222.027 277.24 222.72C279.107 223.413 281.213 223.76 283.56 223.76C286.547 223.76 289 222.933 290.92 221.28C292.893 219.573 293.88 217.547 293.88 215.2C293.88 213.653 293.56 212.347 292.92 211.28C292.333 210.213 291.213 209.173 289.56 208.16C287.96 207.147 285.587 205.973 282.44 204.64C277.267 202.613 273.693 200.347 271.72 197.84C269.747 195.333 268.76 192.667 268.76 189.84C268.76 186.16 270.12 183.2 272.84 180.96C275.56 178.667 279.267 177.52 283.96 177.52C286.68 177.52 289.24 178.08 291.64 179.2C294.04 180.267 296.093 181.787 297.8 183.76L294.2 188.56L293.72 188.24C293.667 187.813 293.56 187.387 293.4 186.96C293.24 186.533 292.867 186 292.28 185.36C291 184.133 289.64 183.307 288.2 182.88C286.76 182.4 285.053 182.16 283.08 182.16C280.467 182.16 278.387 182.88 276.84 184.32C275.293 185.76 274.52 187.467 274.52 189.44C274.52 190.933 274.84 192.267 275.48 193.44C276.173 194.56 277.4 195.68 279.16 196.8C280.92 197.92 283.48 199.147 286.84 200.48C290.093 201.813 292.627 203.173 294.44 204.56C296.253 205.893 297.533 207.36 298.28 208.96C299.027 210.507 299.4 212.32 299.4 214.4C299.4 216.693 298.813 218.96 297.64 221.2C296.52 223.387 294.733 225.2 292.28 226.64C289.827 228.08 286.653 228.8 282.76 228.8ZM347.72 228V178.16H363.72C367.453 178.16 370.467 178.8 372.76 180.08C375.053 181.36 376.733 183.067 377.8 185.2C378.92 187.28 379.48 189.627 379.48 192.24C379.48 194.8 378.947 197.12 377.88 199.2C376.813 201.28 375.16 202.933 372.92 204.16C370.68 205.387 367.747 206 364.12 206H353.48V228H347.72ZM353.48 201.04H363.48C367.107 201.04 369.72 200.267 371.32 198.72C372.92 197.12 373.72 195.013 373.72 192.4C373.72 189.947 372.92 187.84 371.32 186.08C369.72 184.32 367.133 183.44 363.56 183.44H353.48V201.04ZM455.96 228L450.92 213.44H434.84L429.8 228H424.28L442.68 177.28H443.32L461.72 228H455.96ZM442.92 190.08L436.36 209.12H449.48L442.92 190.08ZM525.8 228.8C522.227 228.8 518.947 227.92 515.96 226.16C513.027 224.347 510.68 221.573 508.92 217.84C507.213 214.053 506.333 209.227 506.28 203.36C506.28 198.453 506.84 194.373 507.96 191.12C509.133 187.813 510.653 185.2 512.52 183.28C514.387 181.307 516.44 179.893 518.68 179.04C520.973 178.187 523.24 177.76 525.48 177.76C529.107 177.76 532.2 178.667 534.76 180.48C537.32 182.24 539.24 184.613 540.52 187.6L535.72 189.84L535 190.16L534.76 189.6C534.92 189.173 534.92 188.8 534.76 188.48C534.6 188.107 534.307 187.547 533.88 186.8C532.547 184.987 531.16 183.787 529.72 183.2C528.333 182.56 526.867 182.24 525.32 182.24C521.107 182.24 517.773 184.08 515.32 187.76C512.92 191.387 511.72 196.453 511.72 202.96C511.72 207.12 512.333 210.8 513.56 214C514.84 217.147 516.52 219.6 518.6 221.36C520.68 223.12 523 224 525.56 224C527.587 224 529.48 223.467 531.24 222.4C533.053 221.28 534.52 219.787 535.64 217.92L539.8 220.64C538.2 223.307 536.28 225.333 534.04 226.72C531.8 228.107 529.053 228.8 525.8 228.8ZM587.72 228V178.08H618.28V183.04H593V199.44H613.88V204.56H593V223.04H618.04V228H587.72Z" fill="white"/>
</svg>
