<svg width="1734" height="376" viewBox="0 0 1734 376" fill="none" xmlns="http://www.w3.org/2000/svg">
<path d="M1396.43 327.098C1277.13 422.729 1067.1 380.82 1075.23 177.325C1082.65 -8.486 1290.95 -43.2846 1397 49.6271L1378.39 70.9315C1289.57 -12.8518 1107.3 22.8084 1105.61 178.419C1098.95 347.127 1281.35 386.138 1377.6 306.659L1396.43 327.098Z" fill="black"/>
<path d="M1489 2V31H1734V2H1489Z" fill="black"/>
<path d="M1489 174V203H1734V174H1489Z" fill="black"/>
<path d="M1489 347V375H1734V347H1489Z" fill="black"/>
<path d="M658 375L829.719 2H859.93L1032 375H997.48L845.255 39.4068L692.949 375H658Z" fill="black"/>
<path d="M0 326.776C79.7393 393.585 255.074 401.617 270.9 292.697C284.561 198.674 167.581 185.05 108.307 166.442C13.1818 142.891 32.915 57.5476 91.9125 34.5614C141.12 15.3894 190.045 25.8071 244.626 56.7242L258.005 34.5614C228.457 11.8027 155.082 -12.3402 91.9125 7.13871C61.8077 16.4219 33.0443 33.5672 21.4232 71.4412C-34.2392 252.85 314.715 157.194 230.818 318.971C197.941 371.594 62.4911 345.251 19.197 304.928L0 326.776Z" fill="black"/>
<path d="M368 374V225.882L531.67 223.177C656.619 221.111 654.447 28.1648 524.733 28.0964L368 28.0138V2L529.571 2.51997C589.095 2.7118 648.251 48.7209 650.806 115.651C654.999 203.202 590.651 249.878 527.891 250.471L396.364 251.712L396.817 373.999L368 374Z" fill="black"/>
</svg>
